#tb 0: 1/25
#media_type 0: video
#codec_id 0: rawvideo
#dimensions 0: 416x240
#sar 0: 0/1
0,          0,          0,        1,   149760, 0x0948e521
0,          1,          1,        1,   149760, 0x37afb384
0,          2,          2,        1,   149760, 0xe1864c4a
0,          3,          3,        1,   149760, 0x143344eb
0,          4,          4,        1,   149760, 0x34cce612
0,          5,          5,        1,   149760, 0x45ce60b3
0,          6,          6,        1,   149760, 0x17b36585
0,          7,          7,        1,   149760, 0x6447ebe5
0,          8,          8,        1,   149760, 0x0f4282c7
0,          9,          9,        1,   149760, 0xa0c3dab3
0,         10,         10,        1,   149760, 0x0f3ceb7c
0,         11,         11,        1,   149760, 0xb861f311
0,         12,         12,        1,   149760, 0x620fe482
0,         13,         13,        1,   149760, 0xa3dc1603
0,         14,         14,        1,   149760, 0x6b7a3a6c
0,         15,         15,        1,   149760, 0x01d16e5e
0,         16,         16,        1,   149760, 0xe12f6009
0,         17,         17,        1,   149760, 0xc96d98bd
0,         18,         18,        1,   149760, 0x542e9f47
0,         19,         19,        1,   149760, 0x5bcbc3b8
0,         20,         20,        1,   149760, 0x3be2c63a
0,         21,         21,        1,   149760, 0xd63df815
0,         22,         22,        1,   149760, 0x5c210d61
0,         23,         23,        1,   149760, 0xc7fb33b8
0,         24,         24,        1,   149760, 0xa9f13508
0,         25,         25,        1,   149760, 0xbf636172
0,         26,         26,        1,   149760, 0xf1966847
0,         27,         27,        1,   149760, 0xcc0579eb
0,         28,         28,        1,   149760, 0x467673cb
0,         29,         29,        1,   149760, 0x4dbca3f2
0,         30,         30,        1,   149760, 0xada29bc9
0,         31,         31,        1,   149760, 0x2983a0d5
0,         32,         32,        1,   149760, 0x3864832a
0,         33,         33,        1,   149760, 0x6a06b61d
0,         34,         34,        1,   149760, 0x90a0d994
0,         35,         35,        1,   149760, 0x3c58f375
0,         36,         36,        1,   149760, 0x365bd42a
0,         37,         37,        1,   149760, 0x5665f25f
0,         38,         38,        1,   149760, 0x75d8fe8f
0,         39,         39,        1,   149760, 0xc67e3508
0,         40,         40,        1,   149760, 0x2e7b428b
0,         41,         41,        1,   149760, 0x59cf741c
0,         42,         42,        1,   149760, 0x2cc77eb4
0,         43,         43,        1,   149760, 0x4957970a
0,         44,         44,        1,   149760, 0xa69f7323
0,         45,         45,        1,   149760, 0xaf1f6772
0,         46,         46,        1,   149760, 0x864a5a76
0,         47,         47,        1,   149760, 0x57795407
